<svg width="187" height="31" viewBox="0 0 187 31" fill="none" xmlns="http://www.w3.org/2000/svg">
  <path
    d="M16.043 16.8555H4.16797V26.9336H18.0156V30H0.554688V1.5625H17.8398V4.64844H4.16797V13.7891H16.043V16.8555ZM31.6289 30L22.9375 8.86719H26.6484L32.7031 24.8047L33.0352 26.1133L33.3867 24.8047L39.3047 8.86719H42.9961L34.3828 30H31.6289ZM57.7812 30.3906C56.2969 30.3906 54.9297 30.1367 53.6797 29.6289C52.4427 29.1211 51.3815 28.4115 50.4961 27.5C49.6107 26.5885 48.9206 25.5078 48.4258 24.2578C47.931 23.0078 47.6836 21.6471 47.6836 20.1758V19.3555C47.6836 17.6497 47.957 16.1263 48.5039 14.7852C49.0508 13.431 49.7799 12.2852 50.6914 11.3477C51.5898 10.4232 52.612 9.71354 53.7578 9.21875C54.9167 8.72396 56.1016 8.47656 57.3125 8.47656C58.8359 8.47656 60.1641 8.74349 61.2969 9.27734C62.4427 9.79818 63.3932 10.5208 64.1484 11.4453C64.9036 12.3828 65.4635 13.4831 65.8281 14.7461C66.2057 16.0091 66.3945 17.3763 66.3945 18.8477V20.4688H51.2969V20.6055C51.388 21.6341 51.5898 22.5391 51.9023 23.3203C52.2279 24.1016 52.6706 24.7917 53.2305 25.3906C53.8034 26.0286 54.4935 26.5299 55.3008 26.8945C56.1081 27.2591 57 27.4414 57.9766 27.4414C59.2656 27.4414 60.4115 27.181 61.4141 26.6602C62.4167 26.1393 63.25 25.4492 63.9141 24.5898L66.1211 26.3086C65.418 27.3763 64.3633 28.3268 62.957 29.1602C61.5638 29.9805 59.8385 30.3906 57.7812 30.3906ZM57.3125 11.4453C56.5833 11.4453 55.8932 11.582 55.2422 11.8555C54.5911 12.1159 54.0052 12.5 53.4844 13.0078C52.9635 13.5286 52.5208 14.1667 52.1562 14.9219C51.8047 15.6641 51.5573 16.5234 51.4141 17.5H62.7812V17.3242C62.7812 16.6732 62.6576 15.9766 62.4102 15.2344C62.1628 14.4792 61.8177 13.8281 61.375 13.2812C60.9323 12.7344 60.3724 12.2917 59.6953 11.9531C59.0312 11.6146 58.237 11.4453 57.3125 11.4453ZM72.4688 30V8.86719H75.7109L75.9648 11.9922C76.2773 11.5495 76.6159 11.1458 76.9805 10.7812C77.3581 10.4036 77.7552 10.0781 78.1719 9.80469C78.7969 9.38802 79.474 9.06901 80.2031 8.84766C80.9453 8.61328 81.7266 8.48958 82.5469 8.47656C83.6536 8.47656 84.6562 8.63281 85.5547 8.94531C86.4661 9.25781 87.2409 9.74609 87.8789 10.4102C88.5169 11.0742 89.0052 11.9206 89.3438 12.9492C89.6953 13.9648 89.8711 15.1758 89.8711 16.582V30H86.2578V16.6602C86.2578 15.7227 86.1536 14.9284 85.9453 14.2773C85.737 13.6263 85.431 13.099 85.0273 12.6953C84.6107 12.2917 84.1029 11.9987 83.5039 11.8164C82.918 11.6341 82.2409 11.543 81.4727 11.543C80.8086 11.543 80.1901 11.6406 79.6172 11.8359C79.0443 12.0182 78.5169 12.2721 78.0352 12.5977C77.6445 12.8841 77.2799 13.2161 76.9414 13.5938C76.6159 13.9714 76.3294 14.388 76.082 14.8438V30H72.4688ZM105.047 3.75V8.86719H113.094V11.6602H105.047V23.1445C105.047 23.9648 105.151 24.6419 105.359 25.1758C105.568 25.7096 105.854 26.1328 106.219 26.4453C106.583 26.7708 107 26.9987 107.469 27.1289C107.951 27.2591 108.458 27.3242 108.992 27.3242C109.383 27.3242 109.786 27.3047 110.203 27.2656C110.62 27.2135 111.03 27.1549 111.434 27.0898C111.824 27.0247 112.189 26.9596 112.527 26.8945C112.879 26.8164 113.165 26.7513 113.387 26.6992L113.895 29.2578C113.595 29.4401 113.23 29.6029 112.801 29.7461C112.371 29.8763 111.902 29.987 111.395 30.0781C110.887 30.1823 110.346 30.2604 109.773 30.3125C109.214 30.3646 108.654 30.3906 108.094 30.3906C107.156 30.3906 106.277 30.2604 105.457 30C104.65 29.7266 103.947 29.2969 103.348 28.7109C102.749 28.138 102.273 27.3958 101.922 26.4844C101.583 25.5599 101.414 24.4466 101.414 23.1445V11.6602H95.8672V8.86719H101.414V3.75H105.047ZM138.348 30H134.93V16.8555H123.27V30H119.871V1.5625H123.27V13.7891H134.93V1.5625H138.348V30ZM158.465 30L158.25 27.0898C157.547 28.1315 156.668 28.9453 155.613 29.5312C154.559 30.1042 153.341 30.3906 151.961 30.3906C150.854 30.3906 149.852 30.2214 148.953 29.8828C148.055 29.5312 147.286 28.9909 146.648 28.2617C146.01 27.5326 145.516 26.6081 145.164 25.4883C144.826 24.3555 144.656 23.0013 144.656 21.4258V8.86719H148.27V21.4648C148.27 22.6107 148.361 23.5612 148.543 24.3164C148.725 25.0716 148.999 25.6706 149.363 26.1133C149.728 26.569 150.171 26.888 150.691 27.0703C151.225 27.2526 151.837 27.3438 152.527 27.3438C153.335 27.3438 154.057 27.2526 154.695 27.0703C155.333 26.875 155.887 26.6081 156.355 26.2695C156.746 25.9961 157.085 25.6706 157.371 25.293C157.671 24.9023 157.918 24.4792 158.113 24.0234V8.86719H161.746V30H158.465ZM186.473 19.668C186.473 20.5924 186.401 21.4844 186.258 22.3438C186.128 23.1901 185.932 23.9844 185.672 24.7266C185.32 25.7031 184.858 26.582 184.285 27.3633C183.725 28.1315 183.048 28.7695 182.254 29.2773C181.681 29.6289 181.049 29.9023 180.359 30.0977C179.682 30.293 178.947 30.3906 178.152 30.3906C177.241 30.3906 176.408 30.2799 175.652 30.0586C174.91 29.8372 174.24 29.5182 173.641 29.1016C173.354 28.8932 173.081 28.6654 172.82 28.418C172.56 28.1706 172.312 27.8971 172.078 27.5977L171.902 30H168.582V0H172.195V11.1328C172.495 10.7552 172.827 10.4167 173.191 10.1172C173.556 9.80469 173.947 9.53776 174.363 9.31641C174.884 9.04297 175.457 8.83464 176.082 8.69141C176.707 8.54818 177.384 8.47656 178.113 8.47656C179.025 8.47656 179.865 8.60026 180.633 8.84766C181.401 9.09505 182.098 9.4401 182.723 9.88281C183.283 10.2995 183.784 10.8073 184.227 11.4062C184.669 11.9922 185.06 12.6497 185.398 13.3789C185.75 14.1992 186.017 15.1107 186.199 16.1133C186.382 17.1029 186.473 18.151 186.473 19.2578V19.668ZM182.859 19.2578C182.859 18.5938 182.814 17.9492 182.723 17.3242C182.645 16.6862 182.521 16.0872 182.352 15.5273C182.117 14.8372 181.811 14.2057 181.434 13.6328C181.056 13.0599 180.594 12.6107 180.047 12.2852C179.669 12.0508 179.246 11.8685 178.777 11.7383C178.309 11.6081 177.788 11.543 177.215 11.543C176.59 11.543 176.017 11.6276 175.496 11.7969C174.975 11.9531 174.513 12.1745 174.109 12.4609C173.693 12.7604 173.322 13.112 172.996 13.5156C172.684 13.9062 172.417 14.3359 172.195 14.8047V24.043C172.43 24.5117 172.703 24.9479 173.016 25.3516C173.341 25.7422 173.712 26.0872 174.129 26.3867C174.546 26.6862 175.014 26.9206 175.535 27.0898C176.056 27.2461 176.629 27.3242 177.254 27.3242C177.853 27.3242 178.4 27.2526 178.895 27.1094C179.389 26.9531 179.832 26.7318 180.223 26.4453C180.743 26.0807 181.18 25.6185 181.531 25.0586C181.883 24.4987 182.163 23.8737 182.371 23.1836C182.54 22.6628 182.664 22.1029 182.742 21.5039C182.82 20.9049 182.859 20.293 182.859 19.668V19.2578Z"
    fill="#272343" />
</svg>